<?xml version="1.0" encoding="UTF-8" standalone="no"?>
<!DOCTYPE svg PUBLIC "-//W3C//DTD SVG 1.1//EN" "http://www.w3.org/Graphics/SVG/1.1/DTD/svg11.dtd">
<svg version="1.1" xmlns="http://www.w3.org/2000/svg" xmlns:xlink="http://www.w3.org/1999/xlink" preserveAspectRatio="xMidYMid meet" viewBox="0 0 640 640" width="640" height="640"><defs><path d="M636.94 316.23C636.94 485.14 499.81 622.26 330.91 622.26C162.01 622.26 24.88 485.14 24.88 316.23C24.88 147.33 162.01 10.2 330.91 10.2C499.81 10.2 636.94 147.33 636.94 316.23Z" id="a966fiFOR"></path><path d="M565.68 313.11C565.68 442.68 460.48 547.87 330.91 547.87C201.34 547.87 96.15 442.68 96.15 313.11C96.15 183.54 201.34 78.34 330.91 78.34C460.48 78.34 565.68 183.54 565.68 313.11Z" id="a4yGQNwUo1"></path><path d="M515.27 313.11C515.27 414.86 432.66 497.47 330.91 497.47C229.16 497.47 146.55 414.86 146.55 313.11C146.55 211.36 229.16 128.75 330.91 128.75C432.66 128.75 515.27 211.36 515.27 313.11Z" id="gMlHOyTFc"></path><path d="M431 303.23C436.45 358.47 396.02 407.74 340.79 413.19C285.55 418.64 236.28 378.22 230.83 322.98C225.38 267.74 265.8 218.47 321.04 213.02C376.28 207.57 425.55 248 431 303.23Z" id="bvuuIqa0J"></path><path d="M393.58 243.73L538.24 243.73L538.24 388.73L393.58 388.73L393.58 243.73Z" id="cW4RjLO51"></path><path d="M24.88 281.76L142.04 281.76L142.04 350.71L24.88 350.71L24.88 281.76Z" id="a7y14S8B9"></path><path d="M416.01 281.76L570.27 281.76L570.27 350.71L416.01 350.71L416.01 281.76Z" id="a1s00VaLAW"></path></defs><g><g><g><use xlink:href="#a966fiFOR" opacity="1" fill="#ffffff" fill-opacity="1"></use></g><g><use xlink:href="#a4yGQNwUo1" opacity="1" fill="#4c647c" fill-opacity="1"></use></g><g><use xlink:href="#gMlHOyTFc" opacity="1" fill="#ffffff" fill-opacity="1"></use></g><g><use xlink:href="#bvuuIqa0J" opacity="1" fill="#4c647c" fill-opacity="1"></use></g><g><use xlink:href="#cW4RjLO51" opacity="1" fill="#4c647c" fill-opacity="1"></use></g><g><use xlink:href="#a7y14S8B9" opacity="1" fill="#4c647c" fill-opacity="1"></use></g><g><use xlink:href="#a1s00VaLAW" opacity="1" fill="#ffffff" fill-opacity="1"></use></g></g></g></svg>